<svg version="1.1" viewBox="0 0 486.97 155.01" xml:space="preserve" xmlns="http://www.w3.org/2000/svg" xmlns:cc="http://creativecommons.org/ns#" xmlns:dc="http://purl.org/dc/elements/1.1/" xmlns:rdf="http://www.w3.org/1999/02/22-rdf-syntax-ns#"><metadata><rdf:RDF><cc:Work rdf:about=""><dc:format>image/svg+xml</dc:format><dc:type rdf:resource="http://purl.org/dc/dcmitype/StillImage"/></cc:Work></rdf:RDF></metadata><g transform="matrix(1.3333 0 0 -1.3333 0 155.01)"><g transform="scale(.1)"><path d="m1175.1 284.21h29.87l-14.86 42.402zm58.23-35.789h-15.55l-8.68 23.816h-38.13l-8.67-23.816h-15.14l34.27 90.859h17.63l34.27-90.859" fill="#243747"/><path d="m1270.9 247.04c-4.5 0-8.65 0.832-12.45 2.481-3.81 1.652-6.87 4.308-9.16 7.98s-3.44 8.445-3.44 14.316v45.43h14.73v-41.711c0-6.238 1.33-10.527 3.99-12.871s6.38-3.504 11.15-3.504c2.3 0 4.52 0.379 6.68 1.16 2.15 0.782 4.1 2.024 5.85 3.723 1.74 1.699 3.1 3.875 4.06 6.543 0.96 2.656 1.44 5.781 1.44 9.355v37.305h14.73v-68.828h-12.94l-0.68 11.152c-2.39-4.316-5.6-7.48-9.64-9.504-4.04-2.011-8.81-3.027-14.32-3.027" fill="#243747"/><path d="m1357.7 247.04c-6.88 0-13.17 1.328-18.86 3.996-5.69 2.656-10.19 6.426-13.49 11.289l10.19 8.809c2.01-3.77 4.93-6.77 8.74-9.016 3.81-2.254 8.37-3.379 13.69-3.379 4.22 0 7.58 0.735 10.05 2.207 2.48 1.465 3.72 3.528 3.72 6.192 0 1.75-0.57 3.281-1.72 4.609s-3.33 2.363-6.54 3.106l-14.46 3.027c-7.34 1.465-12.57 3.828-15.69 7.09-3.12 3.254-4.68 7.402-4.68 12.453 0 3.769 1.1 7.254 3.31 10.469 2.2 3.203 5.43 5.8 9.7 7.773s9.38 2.957 15.35 2.957c6.88 0 12.76-1.211 17.62-3.641 4.86-2.433 8.58-5.898 11.15-10.402l-10.18-8.535c-1.75 3.672-4.32 6.406-7.71 8.195-3.4 1.785-6.93 2.684-10.61 2.684-2.93 0-5.45-0.371-7.57-1.102-2.11-0.734-3.71-1.738-4.81-3.027-1.11-1.289-1.66-2.805-1.66-4.543 0-1.836 0.69-3.445 2.07-4.812 1.37-1.379 3.85-2.442 7.43-3.176l15.7-3.301c6.6-1.289 11.26-3.465 13.97-6.543 2.7-3.074 4.06-6.805 4.06-11.211 0-4.414-1.15-8.289-3.44-11.641-2.3-3.347-5.6-5.937-9.92-7.773-4.31-1.836-9.45-2.754-15.41-2.754" fill="#243747"/><path d="m1424.4 337.48v-68.417c0-3.391 0.9-5.872 2.69-7.434 1.79-1.563 4.2-2.332 7.22-2.332 2.49 0 4.64 0.379 6.47 1.16 1.84 0.781 3.53 1.867 5.1 3.242l3.3-10.742c-2.11-1.836-4.7-3.281-7.78-4.336-3.07-1.055-6.49-1.582-10.25-1.582-3.95 0-7.57 0.645-10.88 1.926-3.3 1.289-5.87 3.379-7.7 6.269-1.84 2.891-2.81 6.668-2.89 11.356v66.758zm23.68-20.234v-11.562h-51.62v11.562h51.62" fill="#243747"/><path d="m1462.7 248.42v68.828h12.53l1.38-12.383c1.83 4.492 4.56 7.91 8.19 10.254 3.62 2.332 8.09 3.504 13.42 3.504 1.38 0 2.76-0.117 4.13-0.34 1.37-0.234 2.52-0.578 3.44-1.035l-2.07-12.941c-1.01 0.371-2.13 0.664-3.36 0.898-1.24 0.227-2.92 0.344-5.03 0.344-2.85 0-5.64-0.762-8.4-2.277-2.75-1.512-5.02-3.778-6.81-6.805s-2.68-6.887-2.68-11.563v-36.484h-14.74" fill="#243747"/><path d="m1558 292.6c0 4.59-1.26 8.145-3.79 10.665-2.52 2.531-5.98 3.789-10.39 3.789-4.13 0-7.66-0.965-10.6-2.891-2.94-1.922-5.09-5.047-6.47-9.363l-12.38 5.234c1.73 5.594 5.16 10.098 10.25 13.496 5.09 3.387 11.68 5.086 19.75 5.086 5.51 0 10.37-0.887 14.59-2.683 4.22-1.79 7.55-4.473 9.99-8.047 2.43-3.586 3.64-8.176 3.64-13.77v-30.695c0-3.399 1.7-5.098 5.1-5.098 1.65 0 3.25 0.227 4.81 0.684l-0.82-10.184c-2.11-1.008-4.78-1.515-7.98-1.515-2.94 0-5.58 0.527-7.92 1.582-2.34 1.054-4.18 2.668-5.51 4.824-1.33 2.148-1.99 4.836-1.99 8.047v0.968l3.02 0.137c-0.82-3.574-2.52-6.535-5.09-8.879s-5.55-4.082-8.94-5.234c-3.4-1.141-6.85-1.719-10.33-1.719-4.31 0-8.19 0.695-11.63 2.063-3.44 1.375-6.15 3.464-8.12 6.269-1.98 2.793-2.97 6.258-2.97 10.391 0 5.136 1.68 9.363 5.03 12.664s8.1 5.547 14.25 6.75l26.7 5.222-0.13-10.32-19.42-3.996c-3.85-0.73-6.74-1.785-8.67-3.164-1.92-1.375-2.89-3.398-2.89-6.055 0-2.566 0.99-4.609 2.96-6.121 1.97-1.515 4.61-2.277 7.92-2.277 2.29 0 4.52 0.273 6.68 0.832 2.15 0.547 4.1 1.445 5.84 2.676 1.75 1.238 3.1 2.851 4.07 4.824 0.96 1.973 1.44 4.336 1.44 7.09v18.718" fill="#243747"/><path d="m1611 348.22v-80.539c0-3.387 0.6-5.731 1.79-7.012 1.19-1.289 3.17-1.934 5.92-1.934 1.65 0 3.05 0.117 4.2 0.344 1.15 0.234 2.59 0.672 4.34 1.309l-1.66-11.008c-1.56-0.742-3.35-1.309-5.37-1.727-2.02-0.41-4.03-0.617-6.06-0.617-6.14 0-10.66 1.582-13.55 4.746-2.9 3.176-4.34 8.059-4.34 14.668v81.77h14.73" fill="#243747"/><path d="m1654.3 317.25v-68.828h-14.74v68.828zm-7.3 11.563c-3.22 0-5.67 0.8-7.37 2.41-1.7 1.601-2.54 3.879-2.54 6.816 0 2.93 0.84 5.188 2.54 6.738 1.7 1.563 4.15 2.344 7.37 2.344 3.12 0 5.53-0.781 7.23-2.344 1.69-1.55 2.54-3.808 2.54-6.738 0-2.937-0.85-5.215-2.54-6.816-1.7-1.61-4.11-2.41-7.23-2.41" fill="#243747"/><path d="m1717.1 292.6c0 4.59-1.26 8.145-3.79 10.665-2.52 2.531-5.98 3.789-10.39 3.789-4.13 0-7.66-0.965-10.6-2.891-2.94-1.922-5.09-5.047-6.47-9.363l-12.38 5.234c1.73 5.594 5.16 10.098 10.25 13.496 5.09 3.387 11.68 5.086 19.76 5.086 5.5 0 10.36-0.887 14.59-2.683 4.21-1.79 7.54-4.473 9.98-8.047 2.43-3.586 3.64-8.176 3.64-13.77v-30.695c0-3.399 1.7-5.098 5.1-5.098 1.65 0 3.25 0.227 4.82 0.684l-0.83-10.184c-2.11-1.008-4.77-1.515-7.98-1.515-2.94 0-5.58 0.527-7.92 1.582-2.34 1.054-4.18 2.668-5.51 4.824-1.33 2.148-1.99 4.836-1.99 8.047v0.968l3.02 0.137c-0.82-3.574-2.52-6.535-5.09-8.879s-5.55-4.082-8.94-5.234c-3.4-1.141-6.84-1.719-10.33-1.719-4.31 0-8.19 0.695-11.63 2.063-3.44 1.375-6.15 3.464-8.12 6.269-1.98 2.793-2.97 6.258-2.97 10.391 0 5.136 1.68 9.363 5.03 12.664s8.1 5.547 14.25 6.75l26.71 5.222-0.14-10.32-19.41-3.996c-3.86-0.73-6.75-1.785-8.68-3.164-1.92-1.375-2.89-3.398-2.89-6.055 0-2.566 0.99-4.609 2.96-6.121 1.97-1.515 4.62-2.277 7.92-2.277 2.29 0 4.52 0.273 6.68 0.832 2.15 0.547 4.1 1.445 5.85 2.676 1.74 1.238 3.09 2.851 4.06 4.824 0.96 1.973 1.44 4.336 1.44 7.09v18.718" fill="#243747"/><path d="m1755.8 248.42v68.828h13.07l0.97-17.891-1.93 1.922c1.28 3.946 3.14 7.227 5.58 9.844 2.43 2.617 5.32 4.524 8.67 5.715s6.9 1.785 10.67 1.785c4.86 0 9.24-0.937 13.14-2.82 3.9-1.887 7-4.707 9.29-8.469 2.3-3.758 3.45-8.535 3.45-14.316v-44.598h-14.74v40.059c0 6.785-1.39 11.492-4.19 14.109s-6.31 3.926-10.53 3.926c-3.03 0-5.97-0.711-8.81-2.137-2.85-1.426-5.21-3.691-7.09-6.816-1.89-3.118-2.82-7.297-2.82-12.52v-36.621h-14.73" fill="#243747"/><path d="m1932.4 293.98 29.59-45.566h-16.93l-25.33 39.785zm-8.68 3.028c5.96 0 10.4 1.211 13.29 3.652 2.89 2.422 4.33 6.172 4.33 11.211 0 4.961-1.44 8.68-4.33 11.152-2.89 2.481-7.33 3.719-13.29 3.719h-21.33v-29.734zm1.1 42.265c9.72 0 17.46-2.433 23.2-7.297 5.73-4.871 8.6-11.425 8.6-19.687 0-8.535-2.87-15.125-8.6-19.754-5.74-4.641-13.48-6.953-23.2-6.953l-1.38-0.832h-21.05v-36.336h-14.6v90.859h37.03" fill="#243747"/><path d="m2006.6 247.04c-6.89 0-12.94 1.426-18.18 4.27-5.22 2.839-9.29 6.953-12.18 12.324-2.89 5.359-4.33 11.765-4.33 19.199 0 7.43 1.44 13.836 4.33 19.207 2.89 5.363 6.91 9.473 12.05 12.316 5.14 2.84 10.96 4.266 17.49 4.266 6.69 0 12.38-1.375 17.07-4.129 4.67-2.754 8.25-6.515 10.73-11.289 2.48-4.765 3.72-10.187 3.72-16.242 0-1.648-0.05-3.211-0.14-4.676-0.1-1.476-0.23-2.754-0.42-3.859h-55.33v11.289h48.87l-7.3-2.207c0 6.242-1.56 11.035-4.68 14.387-3.12 3.347-7.39 5.027-12.81 5.027-3.94 0-7.38-0.918-10.32-2.754s-5.19-4.57-6.75-8.191c-1.55-3.625-2.33-8.047-2.33-13.282 0-5.136 0.82-9.504 2.48-13.078 1.65-3.582 3.98-6.289 7.01-8.125 3.04-1.836 6.61-2.754 10.74-2.754 4.59 0 8.3 0.871 11.15 2.617 2.85 1.739 5.09 4.18 6.75 7.297l11.7-5.507c-1.65-3.301-3.87-6.172-6.68-8.606-2.8-2.43-6.12-4.285-9.98-5.574-3.86-1.281-8.07-1.926-12.66-1.926" fill="#243747"/><path d="m2084.5 349.19c2.85 0 5.44-0.301 7.78-0.899 2.34-0.594 4.1-1.394 5.3-2.41l-2.75-10.598c-1.02 0.637-2.16 1.125-3.45 1.446-1.28 0.324-2.75 0.48-4.4 0.48-3.76 0-6.72-0.871-8.88-2.617-2.16-1.738-3.23-4.59-3.23-8.535v-10.051l0.41-3.711v-63.875h-14.73v78.738c0 3.489 0.53 6.614 1.58 9.367 1.06 2.754 2.64 5.067 4.75 6.954 2.11 1.875 4.66 3.3 7.64 4.265 2.98 0.957 6.3 1.446 9.98 1.446zm12.66-31.942v-11.562h-49.55v11.562h49.55" fill="#243747"/><path d="m2139.2 247.04c-6.88 0-12.94 1.426-18.17 4.27-5.22 2.839-9.29 6.953-12.18 12.324-2.89 5.359-4.33 11.765-4.33 19.199 0 7.43 1.44 13.836 4.33 19.207 2.89 5.363 6.91 9.473 12.04 12.316 5.15 2.84 10.97 4.266 17.49 4.266 6.7 0 12.39-1.375 17.07-4.129s8.26-6.515 10.74-11.289c2.48-4.765 3.72-10.187 3.72-16.242 0-1.648-0.05-3.211-0.14-4.676-0.1-1.476-0.23-2.754-0.42-3.859h-55.33v11.289h48.87l-7.3-2.207c0 6.242-1.56 11.035-4.69 14.387-3.11 3.347-7.38 5.027-12.8 5.027-3.94 0-7.38-0.918-10.32-2.754s-5.19-4.57-6.75-8.191c-1.55-3.625-2.33-8.047-2.33-13.282 0-5.136 0.82-9.504 2.48-13.078 1.65-3.582 3.98-6.289 7.01-8.125 3.04-1.836 6.61-2.754 10.74-2.754 4.59 0 8.3 0.871 11.15 2.617 2.84 1.739 5.09 4.18 6.75 7.297l11.7-5.507c-1.65-3.301-3.88-6.172-6.68-8.606-2.8-2.43-6.12-4.285-9.98-5.574-3.86-1.281-8.08-1.926-12.67-1.926" fill="#243747"/><path d="m2188.4 248.42v68.828h12.53l1.38-12.383c1.83 4.492 4.56 7.91 8.18 10.254 3.63 2.332 8.11 3.504 13.43 3.504 1.38 0 2.75-0.117 4.13-0.34 1.38-0.234 2.52-0.578 3.44-1.035l-2.06-12.941c-1.02 0.371-2.14 0.664-3.38 0.898-1.23 0.227-2.91 0.344-5.02 0.344-2.85 0-5.65-0.762-8.4-2.277-2.75-1.512-5.03-3.778-6.82-6.805-1.78-3.027-2.68-6.887-2.68-11.563v-36.484h-14.73" fill="#243747"/><path d="m2273.9 247.04c-6.89 0-12.94 1.426-18.17 4.27-5.23 2.839-9.29 6.953-12.18 12.324-2.89 5.359-4.34 11.765-4.34 19.199 0 7.43 1.45 13.836 4.34 19.207 2.89 5.363 6.9 9.473 12.04 12.316 5.15 2.84 10.97 4.266 17.49 4.266 6.7 0 12.38-1.375 17.07-4.129 4.68-2.754 8.25-6.515 10.73-11.289 2.48-4.765 3.72-10.187 3.72-16.242 0-1.648-0.05-3.211-0.13-4.676-0.1-1.476-0.24-2.754-0.42-3.859h-55.34v11.289h48.87l-7.29-2.207c0 6.242-1.57 11.035-4.69 14.387-3.12 3.347-7.38 5.027-12.8 5.027-3.95 0-7.39-0.918-10.33-2.754s-5.18-4.57-6.74-8.191c-1.56-3.625-2.34-8.047-2.34-13.282 0-5.136 0.82-9.504 2.48-13.078 1.65-3.582 3.99-6.289 7.01-8.125 3.04-1.836 6.62-2.754 10.75-2.754 4.59 0 8.3 0.871 11.15 2.617 2.84 1.739 5.09 4.18 6.75 7.297l11.7-5.507c-1.65-3.301-3.88-6.172-6.68-8.606-2.81-2.43-6.13-4.285-9.98-5.574-3.86-1.281-8.08-1.926-12.67-1.926" fill="#243747"/><path d="m2323.2 248.42v68.828h13.07l0.97-17.891-1.93 1.922c1.29 3.946 3.14 7.227 5.57 9.844s5.32 4.524 8.67 5.715 6.91 1.785 10.68 1.785c4.86 0 9.25-0.937 13.14-2.82 3.9-1.887 7-4.707 9.3-8.469 2.28-3.758 3.44-8.535 3.44-14.316v-44.598h-14.73v40.059c0 6.785-1.41 11.492-4.2 14.109-2.8 2.617-6.31 3.926-10.54 3.926-3.02 0-5.96-0.711-8.8-2.137-2.85-1.426-5.21-3.691-7.09-6.816-1.88-3.118-2.83-7.297-2.83-12.52v-36.621h-14.72" fill="#243747"/><path d="m2438.2 318.62c5.51 0 10.2-0.801 14.11-2.41 3.9-1.602 7.18-3.879 9.84-6.809 2.66-2.937 4.68-6.289 6.06-10.047l-13.91-5.507c-1.19 4.218-3.09 7.449-5.71 9.707-2.62 2.246-6.04 3.367-10.26 3.367-4.13 0-7.66-0.945-10.6-2.82-2.93-1.887-5.16-4.61-6.67-8.196-1.51-3.574-2.28-7.976-2.28-13.211 0-5.136 0.79-9.504 2.35-13.078 1.56-3.582 3.81-6.289 6.75-8.125 2.93-1.836 6.41-2.754 10.45-2.754 3.12 0 5.83 0.528 8.13 1.582 2.28 1.055 4.2 2.571 5.71 4.551 1.52 1.965 2.54 4.375 3.1 7.227l13.35-4.551c-1.29-4.121-3.28-7.723-5.99-10.801-2.7-3.074-6.08-5.457-10.12-7.156s-8.67-2.551-13.9-2.551c-6.79 0-12.8 1.426-18.04 4.27-5.22 2.839-9.29 6.953-12.18 12.324-2.89 5.359-4.33 11.765-4.33 19.199 0 7.43 1.44 13.836 4.33 19.207 2.89 5.363 6.93 9.473 12.11 12.316 5.19 2.84 11.09 4.266 17.7 4.266" fill="#243747"/><path d="m2516.1 247.04c-6.89 0-12.94 1.426-18.18 4.27-5.22 2.839-9.28 6.953-12.17 12.324-2.89 5.359-4.34 11.765-4.34 19.199 0 7.43 1.45 13.836 4.34 19.207 2.89 5.363 6.9 9.473 12.04 12.316 5.14 2.84 10.96 4.266 17.49 4.266 6.7 0 12.38-1.375 17.07-4.129 4.68-2.754 8.25-6.515 10.73-11.289 2.48-4.765 3.72-10.187 3.72-16.242 0-1.648-0.05-3.211-0.14-4.676-0.09-1.476-0.23-2.754-0.42-3.859h-55.33v11.289h48.87l-7.3-2.207c0 6.242-1.56 11.035-4.68 14.387-3.12 3.347-7.39 5.027-12.81 5.027-3.94 0-7.38-0.918-10.32-2.754s-5.18-4.57-6.75-8.191c-1.55-3.625-2.33-8.047-2.33-13.282 0-5.136 0.82-9.504 2.48-13.078 1.65-3.582 3.99-6.289 7.01-8.125 3.04-1.836 6.61-2.754 10.74-2.754 4.59 0 8.31 0.871 11.16 2.617 2.84 1.739 5.09 4.18 6.75 7.297l11.69-5.507c-1.65-3.301-3.87-6.172-6.68-8.606-2.8-2.43-6.12-4.285-9.98-5.574-3.85-1.281-8.07-1.926-12.66-1.926" fill="#243747"/><path d="m2649 247.04c-8.54 0-15.92 1.887-22.16 5.645-6.24 3.761-11.11 9.113-14.59 16.035-3.5 6.933-5.24 15.304-5.24 25.129 0 9.636 1.81 17.937 5.44 24.91 3.63 6.972 8.76 12.375 15.41 16.183 6.66 3.797 14.3 5.711 22.93 5.711 9.45 0 17.09-1.746 22.92-5.234 5.82-3.484 10.48-8.906 13.97-16.238l-13.62-6.477c-1.75 5.051-4.61 8.828-8.61 11.36-3.99 2.519-8.84 3.789-14.52 3.789-5.69 0-10.67-1.34-14.94-3.997-4.27-2.664-7.6-6.542-9.98-11.628-2.38-5.098-3.58-11.223-3.58-18.379 0-7.258 1.06-13.43 3.17-18.516 2.11-5.098 5.3-8.977 9.57-11.633 4.27-2.664 9.51-3.992 15.76-3.992 3.39 0 6.55 0.43 9.49 1.309 2.94 0.867 5.51 2.156 7.72 3.855 2.19 1.692 3.91 3.848 5.15 6.465s1.87 5.715 1.87 9.297v2.609h-26.44v11.981h39.51v-46.805h-11.01l-0.83 18.309 2.75-1.375c-2.19-5.782-5.85-10.286-10.93-13.497-5.1-3.214-11.5-4.816-19.21-4.816" fill="#243747"/><path d="m2740 247.04c-6.88 0-12.94 1.426-18.17 4.27-5.23 2.839-9.29 6.953-12.18 12.324-2.89 5.359-4.33 11.765-4.33 19.199 0 7.43 1.44 13.836 4.33 19.207 2.89 5.363 6.91 9.473 12.04 12.316 5.15 2.84 10.97 4.266 17.49 4.266 6.7 0 12.39-1.375 17.07-4.129s8.25-6.515 10.74-11.289c2.48-4.765 3.72-10.187 3.72-16.242 0-1.648-0.05-3.211-0.14-4.676-0.09-1.476-0.24-2.754-0.42-3.859h-55.33v11.289h48.86l-7.29-2.207c0 6.242-1.56 11.035-4.69 14.387-3.11 3.347-7.38 5.027-12.8 5.027-3.95 0-7.38-0.918-10.32-2.754s-5.19-4.57-6.75-8.191c-1.55-3.625-2.34-8.047-2.34-13.282 0-5.136 0.83-9.504 2.49-13.078 1.65-3.582 3.98-6.289 7.01-8.125s6.61-2.754 10.74-2.754c4.59 0 8.3 0.871 11.15 2.617 2.84 1.739 5.09 4.18 6.75 7.297l11.7-5.507c-1.65-3.301-3.88-6.172-6.68-8.606-2.8-2.43-6.12-4.285-9.98-5.574-3.86-1.281-8.08-1.926-12.67-1.926" fill="#243747"/><path d="m2789.3 248.42v68.828h13.08l0.97-17.891-1.94 1.922c1.29 3.946 3.15 7.227 5.58 9.844s5.32 4.524 8.67 5.715 6.91 1.785 10.68 1.785c4.86 0 9.24-0.937 13.14-2.82 3.9-1.887 7-4.707 9.3-8.469 2.28-3.758 3.43-8.535 3.43-14.316v-44.598h-14.72v40.059c0 6.785-1.41 11.492-4.2 14.109-2.8 2.617-6.31 3.926-10.54 3.926-3.03 0-5.96-0.711-8.81-2.137-2.84-1.426-5.2-3.691-7.09-6.816-1.87-3.118-2.82-7.297-2.82-12.52v-36.621h-14.73" fill="#243747"/><path d="m2904.4 307.06c-4.13 0-7.63-0.938-10.52-2.821-2.9-1.886-5.12-4.609-6.68-8.195-1.57-3.574-2.35-7.977-2.35-13.211 0-5.137 0.78-9.523 2.35-13.144 1.56-3.625 3.78-6.379 6.68-8.262 2.89-1.887 6.39-2.824 10.52-2.824s7.62 0.937 10.46 2.824c2.84 1.883 5.05 4.637 6.61 8.262 1.57 3.621 2.35 8.007 2.35 13.144 0 5.234-0.78 9.637-2.35 13.211-1.56 3.586-3.77 6.309-6.61 8.195-2.84 1.883-6.33 2.821-10.46 2.821zm0 11.562c6.7 0 12.62-1.426 17.76-4.266 5.14-2.843 9.16-6.953 12.05-12.316 2.89-5.371 4.33-11.777 4.33-19.207 0-7.434-1.44-13.84-4.33-19.199-2.89-5.371-6.91-9.485-12.05-12.324-5.14-2.844-11.06-4.27-17.76-4.27s-12.61 1.426-17.76 4.27c-5.14 2.839-9.17 6.953-12.11 12.324-2.94 5.359-4.4 11.765-4.4 19.199 0 7.43 1.46 13.836 4.4 19.207 2.94 5.363 6.97 9.473 12.11 12.316 5.15 2.84 11.06 4.266 17.76 4.266" fill="#243747"/><path d="m2957.1 248.42v68.828h13.07l0.7-11.562c2.38 4.402 5.57 7.664 9.56 9.773s8.24 3.164 12.73 3.164c4.96 0 9.52-1.121 13.7-3.367 4.17-2.258 7.32-5.625 9.43-10.117 1.47 3.027 3.48 5.547 6.06 7.566 2.57 2.024 5.41 3.508 8.54 4.473 3.11 0.969 6.19 1.445 9.22 1.445 4.4 0 8.53-0.918 12.39-2.754s6.97-4.629 9.35-8.398c2.4-3.758 3.59-8.574 3.59-14.453v-44.598h-14.73v42.266c0 5.593-1.34 9.629-3.99 12.109-2.67 2.48-6.06 3.719-10.19 3.719-3.21 0-6.18-0.782-8.89-2.344-2.7-1.563-4.88-3.875-6.53-6.953-1.65-3.074-2.48-6.856-2.48-11.356v-37.441h-14.73v42.266c0 5.593-1.33 9.629-3.99 12.109-2.67 2.48-6.05 3.719-10.19 3.719-2.75 0-5.5-0.742-8.26-2.207-2.75-1.465-5.05-3.758-6.88-6.883-1.84-3.117-2.76-7.246-2.76-12.383v-36.621h-14.72" fill="#243747"/><path d="m3118.1 247.04c-6.89 0-12.94 1.426-18.18 4.27-5.22 2.839-9.29 6.953-12.18 12.324-2.89 5.359-4.33 11.765-4.33 19.199 0 7.43 1.44 13.836 4.33 19.207 2.89 5.363 6.91 9.473 12.04 12.316 5.15 2.84 10.97 4.266 17.5 4.266 6.69 0 12.38-1.375 17.07-4.129 4.67-2.754 8.25-6.515 10.73-11.289 2.48-4.765 3.72-10.187 3.72-16.242 0-1.648-0.05-3.211-0.14-4.676-0.1-1.476-0.23-2.754-0.42-3.859h-55.33v11.289h48.87l-7.3-2.207c0 6.242-1.56 11.035-4.69 14.387-3.11 3.347-7.38 5.027-12.8 5.027-3.94 0-7.38-0.918-10.32-2.754s-5.19-4.57-6.75-8.191c-1.55-3.625-2.33-8.047-2.33-13.282 0-5.136 0.82-9.504 2.48-13.078 1.65-3.582 3.98-6.289 7.01-8.125 3.04-1.836 6.61-2.754 10.74-2.754 4.59 0 8.3 0.871 11.15 2.617 2.85 1.739 5.09 4.18 6.75 7.297l11.7-5.507c-1.65-3.301-3.88-6.172-6.68-8.606-2.8-2.43-6.12-4.285-9.98-5.574-3.86-1.281-8.07-1.926-12.66-1.926" fill="#243747"/><path d="m3226.5 284.21h29.88l-14.87 42.402zm58.23-35.789h-15.55l-8.67 23.816h-38.13l-8.67-23.816h-15.15l34.28 90.859h17.62l34.27-90.859" fill="#243747"/><path d="m3314.5 337.48v-68.417c0-3.391 0.9-5.872 2.69-7.434 1.78-1.563 4.2-2.332 7.22-2.332 2.48 0 4.63 0.379 6.48 1.16 1.82 0.781 3.52 1.867 5.09 3.242l3.3-10.742c-2.11-1.836-4.7-3.281-7.78-4.336-3.07-1.055-6.49-1.582-10.25-1.582-3.95 0-7.58 0.645-10.88 1.926-3.3 1.289-5.87 3.379-7.71 6.269-1.83 2.891-2.8 6.668-2.89 11.356v66.758zm23.68-20.234v-11.562h-51.62v11.562h51.62" fill="#243747"/><path d="m3367.1 348.22v-80.539c0-3.387 0.59-5.731 1.79-7.012 1.19-1.289 3.16-1.934 5.91-1.934 1.66 0 3.06 0.117 4.2 0.344 1.16 0.234 2.6 0.672 4.34 1.309l-1.65-11.008c-1.56-0.742-3.35-1.309-5.37-1.727-2.01-0.41-4.04-0.617-6.06-0.617-6.14 0-10.66 1.582-13.55 4.746-2.89 3.176-4.34 8.059-4.34 14.668v81.77h14.73" fill="#243747"/><path d="m3435.8 292.6c0 4.59-1.26 8.145-3.79 10.665-2.52 2.531-5.99 3.789-10.39 3.789-4.13 0-7.67-0.965-10.6-2.891-2.93-1.922-5.09-5.047-6.47-9.363l-12.39 5.234c1.75 5.594 5.16 10.098 10.25 13.496 5.1 3.387 11.68 5.086 19.76 5.086 5.51 0 10.37-0.887 14.6-2.683 4.22-1.79 7.54-4.473 9.98-8.047 2.42-3.586 3.64-8.176 3.64-13.77v-30.695c0-3.399 1.7-5.098 5.1-5.098 1.65 0 3.25 0.227 4.81 0.684l-0.83-10.184c-2.11-1.008-4.76-1.515-7.98-1.515-2.94 0-5.57 0.527-7.92 1.582-2.33 1.054-4.17 2.668-5.5 4.824-1.33 2.148-2 4.836-2 8.047v0.968l3.03 0.137c-0.82-3.574-2.52-6.535-5.09-8.879-2.58-2.344-5.55-4.082-8.95-5.234-3.39-1.141-6.84-1.719-10.32-1.719-4.32 0-8.2 0.695-11.64 2.063-3.43 1.375-6.15 3.464-8.12 6.269-1.97 2.793-2.96 6.258-2.96 10.391 0 5.136 1.68 9.363 5.03 12.664s8.1 5.547 14.25 6.75l26.7 5.222-0.14-10.32-19.4-3.996c-3.86-0.73-6.75-1.785-8.68-3.164-1.93-1.375-2.89-3.398-2.89-6.055 0-2.566 0.98-4.609 2.96-6.121 1.98-1.515 4.61-2.277 7.91-2.277 2.3 0 4.52 0.273 6.68 0.832 2.16 0.547 4.1 1.445 5.85 2.676 1.74 1.238 3.1 2.851 4.06 4.824 0.97 1.973 1.45 4.336 1.45 7.09v18.718" fill="#243747"/><path d="m3500.6 247.04c-6.88 0-13.16 1.328-18.85 3.996-5.7 2.656-10.19 6.426-13.49 11.289l10.19 8.809c2.01-3.77 4.93-6.77 8.74-9.016 3.8-2.254 8.37-3.379 13.7-3.379 4.22 0 7.57 0.735 10.05 2.207 2.47 1.465 3.71 3.528 3.71 6.192 0 1.75-0.58 3.281-1.72 4.609-1.15 1.328-3.33 2.363-6.54 3.106l-14.46 3.027c-7.34 1.465-12.57 3.828-15.69 7.09-3.12 3.254-4.68 7.402-4.68 12.453 0 3.769 1.1 7.254 3.3 10.469 2.21 3.203 5.44 5.8 9.71 7.773s9.38 2.957 15.35 2.957c6.89 0 12.75-1.211 17.62-3.641 4.86-2.433 8.58-5.898 11.15-10.402l-10.19-8.535c-1.74 3.672-4.31 6.406-7.71 8.195-3.39 1.785-6.92 2.684-10.6 2.684-2.94 0-5.46-0.371-7.56-1.102-2.12-0.734-3.73-1.738-4.83-3.027-1.09-1.289-1.65-2.805-1.65-4.543 0-1.836 0.69-3.445 2.07-4.812 1.38-1.379 3.85-2.442 7.43-3.176l15.7-3.301c6.6-1.289 11.26-3.465 13.97-6.543 2.71-3.074 4.05-6.805 4.05-11.211 0-4.414-1.14-8.289-3.43-11.641-2.3-3.347-5.6-5.937-9.92-7.773-4.31-1.836-9.45-2.754-15.42-2.754" fill="#243747"/><path d="m1531.9 629.34-73.24 175.51-73.24-175.51zm-127.58 318.55h111.83l236.25-545.08h-126.79l-50.4 121.39h-233.1l-50.4-121.39h-123.64l236.25 545.08" fill="#243747"/><path d="m2081.6 681.15c59.06 0 92.93 30.926 92.93 76.543v1.543c0 51.035-36.23 77.313-95.3 77.313h-120.49v-155.4zm-244.13 262.87h252.01c70.08 0 124.42-19.328 160.65-54.894 30.7-30.156 47.25-72.676 47.25-123.7v-1.555c0-87.363-48.04-142.25-118.13-167.77l134.66-193.29h-141.75l-118.12 173.19h-95.3v-173.19h-121.27v541.21" fill="#243747"/><path d="m2382.5 671.88v1.543c0 153.86 122.07 279.88 289.02 279.88 99.23 0 159.08-26.281 216.57-74.219l-76.39-90.461c-42.53 34.785-80.33 54.895-144.12 54.895-88.2 0-158.29-76.543-158.29-168.55v-1.551c0-98.965 69.3-171.64 166.95-171.64 44.11 0 83.48 10.821 114.2 32.469v77.317h-122.07v102.83h239.4v-235.04c-56.7-47.16-134.66-85.82-235.46-85.82-171.68 0-289.81 118.29-289.81 278.34" fill="#243747"/><path d="m3340.9 629.34-73.24 175.51-73.24-175.51zm-127.57 318.55h111.82l236.25-545.08h-126.78l-50.4 121.39h-233.11l-50.4-121.39h-123.64l236.26 545.08" fill="#243747"/><path d="m709.73 793.01c-3.586 0-6.457 2.633-6.457 6.539-0.082 7.816-3.829 13.797-9.012 19.219-2.231 2.468-4.703 3.585-8.133 2.871-2.949-0.641-5.898-0.801-8.852-0.957-16.343-1.2-32.613-1.516-48.878 0.476-1.915 0.238-4.543 2.153-5.184 3.828-2.07 5.5-3.348 11.325-5.102 17.543 2.789 0.239 4.946 0.477 7.098 0.637 7.652 0.398 5.981 1.754 7.895-5.66 0.796-3.11 2.152-3.988 5.101-4.149 16.504-0.875 32.852-0.558 49.199 1.754 5.262 0.719 9.09-0.636 12.918-3.906 9.489-8.371 16.028-18.102 15.946-31.336-0.078-4.066-2.789-6.859-6.539-6.859zm-28.387-27.746c-4.067-0.082-6.695 2.468-6.938 7.093-0.398 6.461-3.109 11.723-7.175 16.664-3.348 4.149-7.098 5.825-12.278 4.629-1.914-0.398-3.988-0.242-5.98-0.242-15.551-0.238-30.699 2.235-44.973 8.695-3.191 1.434-4.785 3.665-5.105 7.094-0.317 3.906-1.036 7.817-1.512 11.801-0.879 6.859-1.676 13.715-2.555 21.211 3.906 0 7.258-0.156 10.528 0 2.074 0.16 2.789-0.559 3.027-2.711 0.879-7.652 2.156-15.23 2.871-22.883 0.238-2.871 1.438-4.066 3.91-4.863 14.512-4.867 29.422-6.383 44.653-4.387 3.746 0.477 6.937 0.078 9.726-2.554 1.356-1.352 2.949-2.391 4.309-3.668 8.05-7.653 13.312-16.665 13.632-27.989 0.161-4.781-2.23-7.734-6.14-7.89zm-65.863-72.645c-4.625-0.078-9.25 0.797-13.793 1.516-2.871 0.48-5.743 1.355-9.332 2.156 4.226-4.07 8.214-7.258 11.406-11.086 3.347-3.906 6.617-8.055 8.847-12.68 3.032-6.379-1.832-12.437-8.929-11.562-3.031 0.398-6.141 1.199-8.852 2.473-8.851 3.988-17.703 7.972-26.152 12.597-27.91 15.153-54.699 32.137-80.938 49.996-1.91 1.278-3.664 2.633-5.578 4.071 14.352 8.293 24.637 22.406 28.387 31.972 1.434-0.316 2.789-0.476 3.984-0.879 15.071-5.019 30.223-9.644 45.055-15.308 18.656-7.176 36.598-15.946 52.227-28.625 4.066-3.27 7.972-7.016 10.925-11.324 4.145-6.219 0.161-13.157-7.257-13.317zm-162.03 50.637c-6.219 5.101-11.402 11.48-17.062 17.301 0.16 0.32 0.316 0.636 0.476 0.957 22.489 2.394 42.422 10.289 59.086 26.632 0.957-4.226 2.153-7.656 2.313-11.082 0.082-3.91 0.16-8.214-1.356-11.562-4.625-10.129-11.879-18.34-21.847-23.524-7.336-3.828-15.153-3.906-21.61 1.278zm-27.828 33.648c-2.711 4.305-5.422 8.61-7.496 13.157-4.305 9.25-8.215 18.738-12.199 28.07 0.316 0.156 0.719 0.394 1.117 0.555 27.828-11.165 56.055-15.79 85.16-4.465 0.317-2.071 0.797-3.746 0.637-5.344-0.16-1.832-0.637-3.746-1.676-5.34-1.355-2.074-3.109-3.906-4.941-5.66-15.95-15.473-35.407-22.168-57.254-22.887-1.117-0.082-2.711 0.875-3.348 1.914zm-23.844 61.559c-2.07 11.48-2.789 23.043-0.636 34.523 1.355 6.942 3.187 13.715 5.101 21.532 21.692-30.461 49.918-49.118 85.242-57.172 0-1.516-0.16-2.871 0.079-4.149 0.558-3.347-0.958-5.101-3.985-5.98-5.344-1.594-10.445-3.746-15.867-4.621-24.16-4.227-46.488 2.468-68.02 12.757-0.957 0.477-1.671 1.993-1.914 3.11zm13 72.32c5.024 8.535 11.243 16.11 18.418 22.887 8.852 8.371 18.899 15.07 29.903 19.855 0.957-11.086 1.355-22.007 3.031-32.773 3.348-21.688 11.242-41.625 25.434-58.688 2.792-3.269 4.707-6.058 1.597-10.046-0.16-0.161-0.32-0.321-0.558-0.637-0.637 0.16-1.438 0.16-2.153 0.316-32.297 8.531-57.574 26.715-75.672 54.942-0.957 1.515-0.879 2.629 0 4.144zm105.33-64.508c-1.355 1.118-2.312 2.633-3.429 4.067 0.242 0.32 0.48 0.636 0.718 0.957 5.981-1.434 11.883-3.188 17.942-4.067 7.578-1.035 12.519-5.742 17.066-10.921 2.231-2.555 3.824-5.985 4.621-9.333 1.754-6.933 2.711-14.035 3.989-21.128 0.718-4.227-1.516-7.735-5.102-8.215-3.508-0.559-7.18 2.312-7.894 6.14-1.118 5.903-2.235 11.883-3.192 17.864-0.637 3.586-2.152 6.535-5.183 8.847-6.618 5.106-13.075 10.446-19.536 15.789zm-14.832-4.464c0.321 0.16 0.719 0.398 1.118 0.558 5.98-6.617 15.152-9.25 20.89-17.223l1.278-4.945c0.878-1.355 1.117-2.551 0.957-3.586l0.558-2.394c1.356-5.582 2.633-10.922 3.828-16.266 0.875-4.227-1.039-7.734-4.707-8.531-3.828-0.957-7.176 1.273-8.211 5.66-1.039 4.227-2.234 8.531-2.793 12.918-0.875 7.496-3.586 13.637-10.843 17.062-0.875 0.399-1.993 1.516-1.993 2.395-0.242 4.781-0.082 9.566-0.082 14.352zm10.926 23.761c-2.633 0-4.863-0.16-7.015 0.082-1.356 0.157-3.192 0.477-3.911 1.434-5.023 7.015-10.683 13.875-14.589 21.527-10.684 20.895-13.875 43.457-12.918 66.742 0.078 2.793 0.957 3.907 3.668 4.625 13.476 3.192 27.031 3.59 40.746 2.391 0.718-0.078 1.355-0.398 2.152-0.637-12.758-31.175-14.75-63.07-8.133-96.164zm56.297-8.851h-3.031c-11.801 0.32-23.446 1.754-35.004 4.547-2.711 0.718-3.91 1.832-4.227 4.464-1.195 8.692-3.031 17.383-3.59 26.157-1.515 22.562 1.836 44.414 10.766 65.304 0.957 2.313 2.074 3.188 4.625 2.473 12.199-3.512 24.399-6.859 36.52-10.289 1.117-0.316 2.074-0.957 3.031-1.434-14.113-29.425-12.918-59.965-9.09-91.222zm-102.39 191.69c2.235 3.2 5.981 3.59 9.969 1.2 5.184-3.03 10.207-6.14 15.551-8.77 37.394-18.34 77.183-28.07 118.33-32.45 29.742-3.19 58.848-8.855 86.996-18.824 24.879-8.769 48.641-19.773 69.293-36.519 10.926-8.852 20.492-18.817 25.594-32.293 6.062-16.027 0.879-31.496-13.235-38.992-11.246-5.981-23.523-6.778-36.043-5.981 2.153 1.196 4.309 2.235 6.379 3.508 3.907 2.633 7.735 5.344 11.645 8.055 1.594 1.117 3.187 2.629 5.019 3.187 13.797 3.828 18.821 13.953 13.321 27.192-3.75 8.851-10.051 15.789-17.145 22.007-15.312 13.317-32.933 22.805-51.512 30.7-27.031 11.402-55.257 18.66-84.285 22.726-18.656 2.629-37.316 5.262-55.976 8.054 0 0-4.465 0.96-10.684 2.39 0.078-0.16 0.078-0.24 0.16-0.32-5.422 1.36-10.683 2.71-16.027 4.15-0.32 0.08-0.637 0.16-0.957 0.24-2.234 0.56-4.387 1.12-6.617 1.67 0.078 0 0.078 0 0.078 0.08-5.344 1.44-10.125 2.95-13.477 4.31-18.738 6.46-36.918 14.03-53.582 24.8-3.91 2.47-5.023 6.61-2.793 9.88zm254.37-167.76c-42.82-18.34-87.792-25.516-134.2-24.719-1.195 0-2.394 0.238-3.75 0.398-2.711 18.102-3.906 36.043-1.672 54.145 1.196 9.886 3.426 19.535 7.813 28.547 0.957 2.152 2.234 3.507 4.785 3.824 4.066 0.48 8.055 1.515 12.039 2.312 6.617 1.278 13.317 2.555 20.414 3.911v-14.036c12.121 2.313 23.844 4.625 35.961 6.938 0-3.988 0.082-7.578-0.078-11.164-0.082-2.153 0.637-3.188 2.711-3.746 3.984-1.117 8.055-2.317 11.961-3.668 1.992-0.641 2.871-0.16 3.984 1.511 5.106 8.055 14.672 11.485 23.684 8.774 8.93-2.711 15.152-10.844 14.91-20.254 0-2.473 0.957-3.191 2.949-3.828 8.375-2.391 16.668-4.863 24.961-7.496 1.516-0.559 3.668-2.074 3.828-3.348 0.078-1.277-1.515-3.43-2.953-4.148-9.008-4.864-17.941-9.887-27.348-13.953zm-127.82 190.74c8.449-3.83 17.063-7.34 25.594-10.84 27.988-11.33 56.059-22.57 83.965-33.97 6.062-2.48 11.883-5.5 18.019-8.46l2.157-1.03c0.554 0 1.195-0.24 1.753-0.8l5.661-2.79c3.429-1.99 7.097-3.67 10.605-5.66 5.024-2.87 10.047-5.74 15.07-8.693 1.356-0.797 2.551-1.516 3.508-2.074 18.66-11.719 36.203-24.797 49.758-42.5 11.242-14.75 17.703-31.176 17.145-49.997-0.481-17.3-7.895-30.461-23.207-38.832-8.211-4.464-17.141-6.859-26.391-8.293-18.82-2.871-37.637-1.992-56.375 0.399-4.387 0.558-8.692 1.355-13.953 2.074 8.449 3.508 15.867 6.539 23.281 9.488 1.035 0.399 2.152 0.481 3.27 0.399 8.371-0.238 16.746-0.957 25.117-0.879 11.484 0.16 22.886 1.598 33.648 6.062 16.028 6.539 22.809 18.18 21.293 35.485-1.277 15.707-8.215 28.625-18.101 40.347-6.7 7.813-13.954 15.071-22.407 20.969-0.398 0.238-0.797 0.559-1.117 0.957-2.633 2.235-6.539 5.024-10.765 7.817l-0.079-0.082c-0.957 0.64-1.914 1.277-2.949 1.836-0.32 0.238-0.48 0.398-0.719 0.636-1.035 0.641-2.152 1.356-3.269 1.992-0.238 0.082-0.477 0.243-0.719 0.481-1.355 0.797-2.711 1.676-4.066 2.391-0.157 0.082-0.317 0.16-0.477 0.242-0.558 0.394-1.195 0.797-1.754 1.113-5.98 3.508-10.445 5.98-10.445 5.98-7.496 3.989-14.832 8.292-22.648 11.722-25.434 11.01-51.11 21.61-76.708 32.45-21.769 9.25-43.617 18.34-65.226 27.99-2.789 1.2-5.5 2.71-8.133 4.31-121.76-2.47-232.6-49.52-316.64-125.75l326.61-326.61 326.6 326.61c-81.73 74.159-188.9 120.81-306.91 125.51" fill="#59a69a"/><path d="m946.39 597.97 11.64 0.879c1.438 0.16 2.871 0.238 4.309 0.316 3.269 0.16 6.617 0.398 9.805 0.957 1.039 0.16 2.234 0.957 3.511 1.754-0.797 1.355-1.593 2.633-2.472 3.351-7.575 5.739-16.907 8.532-30.141 8.93-11.086 0.399-17.227-3.269-21.531-12.281-6.457-13.715-14.434-23.68-24.321-30.301-9.168-6.219-16.425-10.683-23.281-14.43-21.609-11.722-42.66-15.949-64.43-12.757-7.175 1.035-14.113 2.789-20.89 5.179-10.207 3.59-20.094 8.774-29.742 15.711-1.516-3.988-2.793-7.816-3.828-11.484-3.59-12.359-4.786-23.524-3.59-34.285 2.074-19.457 11.644-33.571 28.386-42.024 9.411-4.703 20.176-6.777 32.934-6.855 23.125 0.16 44.176 8.687 64.27 25.914 20.011 17.223 34.445 38.512 44.89 55.176 3.668 5.902 8.453 9.011 15.07 9.648l4.786 0.399c6.859 0.64 13.875 1.359 20.734 2.472 1.434 0.242 3.668 1.598 4.383 2.395-0.238 1.754-1.672 4.226-3.27 5.5-2.23 1.593-4.863 2.715-7.414 3.828-1.117 0.48-2.152 0.879-3.109 1.355l-8.613 4.067 9.57 0.558c1.433 0.078 2.871 0.078 4.387 0.16 3.906 0.161 7.972 0.239 11.879 0.958 0.878 0.16 2.074 1.355 3.191 2.39 0.156 0.16 0.238 0.32 0.398 0.481-0.082 0.078-0.16 0.238-0.242 0.32-0.797 1.273-1.672 2.551-2.551 3.027-3.031 1.438-6.296 2.473-9.566 3.512-1.355 0.395-2.793 0.875-4.148 1.352zm43.379 4.945c-0.161-2.074-0.321-4.227-0.481-6.301-0.398-5.023-0.797-10.125-1.754-15.148-0.476-2.395-2.39-4.149-4.066-5.742-1.196-1.036-2.313-2.075-2.711-3.032-0.477-1.117-0.32-2.711-0.238-4.465 0.16-1.992 0.238-4.226-0.481-6.3-3.109-8.532-11.242-10.524-17.141-11.321-7.097-0.957-14.195-1.593-21.132-1.914-4.465-0.16-7.094-1.675-9.411-5.422-12.675-20.414-25.992-37.238-40.824-51.511-1.914-1.914-3.59-4.465-4.465-7.016-4.386-12.281-8.691-24.641-13-36.922-3.425-9.886-6.855-19.773-10.363-29.66-2.152-6.219-4.547-12.359-6.937-18.578l-2.391-6.223c0.875-0.398 1.594-0.797 2.391-1.195 11.64-6.539 19.058-14.672 22.566-24.875 2.473-7.34-0.16-14.195-7.098-18.262-1.117-0.718-2.23-1.996-2.472-2.953-1.594-5.422-4.625-8.769-9.09-10.523l-15.469 15.468 2.633-1.195c4.383-1.914 7.016-2.793 7.734-2.473 0.797 0.958 0.078 7.817-0.16 10.129l-0.238 2.629h3.906c0.559-0.078 1.117-0.078 1.516 0 0.558 0.16 1.195 0.321 1.914 0.399 1.035 0.242 3.027 0.64 3.347 1.117 0.079 0.32-0.398 2.473-1.277 3.906-4.625 7.735-10.844 12.918-18.34 15.391-1.914 0.637-3.668 0.957-5.422 0.957-5.023 0-9.726-2.633-14.832-8.293-0.636-0.637-0.953-1.277-1.351-1.914l-9.649 9.648c1.832 2.235 3.907 4.465 6.536 6.457 2.71 1.996 5.742 3.672 8.691 5.184 0.48 0.242 0.957 0.48 1.355 0.719-13.953 14.511-28.144 26.472-43.296 36.519l-18.661 12.36 20.895-8.055c9.566-3.746 19.695-7.813 28.863-13.473 6.301-3.828 12.199-8.453 17.863-12.918 1.594-1.277 3.27-2.554 4.942-3.828l22.726 62.754c-1.835-0.637-3.668-1.195-5.5-1.832-7.578-2.473-14.753-4.785-22.25-6.699-23.761-5.903-42.976-5.106-60.359 2.472-4.945 2.153-9.57 5.18-14.035 8.051-0.875 0.559-1.754 1.117-2.633 1.676v-0.398c-0.156-3.43-0.398-6.938-0.476-10.528-0.082-3.027-0.239-6.058-0.321-9.09-0.238-4.465-0.316-8.929-0.398-13.394l-148.15 148.15 61.317 61.242c8.613-13.398 21.293-25.519 33.492-30.3 5.184-1.997 10.523-3.75 15.789-5.504 4.703-1.594 9.406-3.192 14.031-4.946 3.192-1.195 6.301-3.347 8.215-5.82 25.278-32.215 57.649-45.211 96.242-38.672 37.879 6.457 64.352 29.106 76.391 65.387 5.504 16.582 9.809 33.887 13.875 50.633 0.879 3.59 1.754 7.175 2.633 10.765l-13.715-20.652-1.117 5.898c-3.352 17.864-12.52 30.621-26.074 45.454l-1.914 1.992 2.312 1.593c2.23 1.594 4.383 3.192 6.539 4.786 4.703 3.429 9.488 7.015 14.672 9.808 7.094 3.828 13.953 4.625 19.695 2.153 4.227-1.836 7.735-5.262 10.285-10.129l0.719 2.871c2.231 8.613 4.465 16.984 6.856 25.277 0.558 2.152 0.32 2.953-1.594 4.387-16.664 12.679-33.969 14.351-51.594 4.863-6.933-3.746-13.394-8.769-19.773-13.555-2.629-2.074-5.34-4.144-8.133-6.058-0.32-0.719-0.797-1.039-1.117-1.278-1.356-0.878-2.871-0.238-3.426 0.079-42.024 18.261-86.676 8.375-116.66-25.832-2.071-2.317-4.145-2.715-5.981-2.473l194.72 194.64c18.34-20.254 34.926-42.102 49.758-65.305-3.828-15.153-10.367-43.141-10.688-44.496-10.047-38.196-20.011-75.989-30.058-113.78-3.989-15.071-7.977-30.141-11.961-44.813l-4.309-16.348c1.754 0 3.508 0.079 5.266 0.079 6.379 0.16 12.918 0.242 19.375-0.239 10.207-0.875 19.457-4.625 26.711-11.004 3.269-2.789 8.691-8.293 8.215-13.234zm57.17 88.031c0.48 10.524-2.71 20.813-9.73 31.336-3.82 5.66-9.57 7.895-16.74 6.301-2.08-0.481-3.75-1.438-4.07-1.836 0.08-0.398 1.04-2.23 2.23-3.43 2.24-2.07 4.71-3.906 7.26-5.82 1.12-0.797 2.15-1.594 3.27-2.391l2.07-1.675-5.18-5.5-1.67 0.796c-0.88 0.477-1.84 1.036-2.72 1.516-1.99 1.113-3.9 2.152-5.98 3.027-3.98 1.676-7.25 1.2-8.85-1.273-1.75-2.633-0.64-4.309 2.47-7.734 2.08-2.153 4.15-4.227 6.22-6.219 2.24-2.156 4.47-4.309 6.54-6.621 5.42-6.059 7.34-12.278 5.58-19.137-0.24-1.117-0.16-1.594-0.08-1.676h0.4c0.24 0 0.72 0 1.36 0.16 8.21 1.594 17.3 11.961 17.62 20.176zm-65.784-242.88c0 11.004-3.187 21.129-8.691 27.747l-1.274-4.223c-3.269-11.004-6.461-21.93-9.648-32.856 0.078-0.16 0.238-0.796 0.637-1.351l1.035-1.52c3.59-5.261 7.258-10.523 8.613-17.461 5.899 7.336 9.328 18.02 9.328 29.664zm-29.023-21.531c-6.219 5.582-12.52 6.86-18.82 3.668-4.942-2.551-9.727-6.219-13.313-10.285-1.516-1.676-2.316-5.66-1.758-8.691 0.242-1.039 0.879-1.516 4.707-1.356h1.676c0.637 0 1.113-0.238 1.512-0.398l1.836-0.719 0.078-2.152c-0.078-0.719-0.238-1.434-0.399-2.075-0.398-1.433-0.718-2.711-0.718-3.906 0.082-3.508 0.48-4.465 0.718-4.703 0.239 0 1.914 0.477 2.789 0.637 0.641 0.16 1.278 0.32 1.836 0.476 0.321 0 0.879 0.321 1.434 0.641 0.402 0.238 0.961 0.476 1.516 0.715l4.785 2.312-1.434-5.101c-0.16-0.559-0.32-1.039-0.48-1.516-0.078-0.32-0.239-0.719-0.239-0.797 0.079-0.398 0.161-1.035 0.321-1.676 0.078-0.957 0.398-2.789 0.715-3.269 1.277-0.559 4.226-0.477 4.867 0.082 5.261 4.625 11.558 11.004 14.031 19.535 2.152 7.176 0.238 13.316-5.66 18.578zm111.24 158.92c0-125.75-47.69-240.33-125.91-326.6l-40.984 40.984c4.543 12.68 10.125 28.309 10.207 28.547 0.156 0.476 0.316 0.957 0.476 1.434 3.508 9.488 6.856 19.058 10.207 28.625 2.711 7.578 5.422 15.074 8.055 22.648 0.238 0.637 0.316 0.957 0.316 1.035s-0.316 0.238-1.113 0.481l-0.801 0.316c-2.551 0.879-5.82 1.914-6.855 4.469-1.516 3.746-3.75 7.254-5.981 10.683-2.152 3.27-4.304 6.618-5.902 10.285-3.027 6.86-1.035 15.071 5.344 22.008 7.496 8.055 19.297 18.102 36.597 14.75 0.321 0.719 0.559 1.356 0.797 2.075 4.867 15.789 9.809 31.496 14.754 47.207 13.317 42.66 27.11 86.832 40.272 130.29 1.03 3.507 2.23 6.933 3.34 10.363 4.07 12.437 8.22 25.277 8.3 38.754 0.08 4.386-1.12 7.414-3.91 10.445-1.51 1.594-3.03 3.109-4.62 4.625-3.27 3.27-6.702 6.617-9.491 10.523-3.192 4.469-4.465 8.934-3.75 13.317 0.719 4.625 3.668 8.933 8.531 12.359 0.96 0.719 1.44 1.36 1.52 1.598 1.75 10.601 6.06 14.832 16.1 15.789 4.07 0.398 8.06 0.078 12.28-0.242 1.2-0.078 2.39-0.239 3.59-0.317l1.12 4.942c17.78-50.473 27.51-104.78 27.51-161.39zm-324.94 101.51-4.547 1.355c-5.34 1.594-10.684 3.032-16.266 3.907l-30.777-30.778c1.355-4.304 3.906-8.453 7.734-12.281 10.285-10.125 23.203-15.391 33.25-18.816 0.879-0.321 1.754-0.481 2.789-0.719l5.582-1.195-1.035 3.906c-4.941 18.5-1.676 36.121 2.711 52.308zm41.226-43.617h-0.082c-3.109 0-6.058-1.278-8.215-3.508-2.07-2.152-3.187-4.945-3.105-7.973 0.078-6.222 5.262-11.246 11.48-11.246h0.078c3.032 0 5.981 1.278 8.133 3.512 2.156 2.23 3.352 5.023 3.27 7.973-0.078 6.14-5.34 11.242-11.559 11.242zm82.606-23.524c-2.551 10.766-6.536 23.125-16.344 32.453-6.539 6.223-14.512 7.817-23.285 4.786-7.895-2.711-12.918-8.77-14.512-17.543-0.559-2.789-0.637-5.582-0.797-8.293 0-0.637 0-1.356-0.082-1.993 0 0 0.399-8.054 0.957-10.921 1.199-6.301 2.473-12.918 4.547-19.141 3.348-10.285 8.77-14.672 18.816-14.672 1.438 0 2.954 0.082 4.625 0.32 11.004 1.118 18.821 4.946 23.286 11.243 4.226 6.058 5.183 14.035 2.789 23.761zm25.836 35.805c0-3.031-1.356-5.98-3.508-8.137-2.153-2.07-4.946-3.187-7.813-3.187h-0.242c-2.949 0.082-5.82 1.273-7.894 3.508-2.153 2.234-3.266 5.183-3.188 8.214 0.16 6.379 5.422 11.321 11.563 11.321 6.14-0.156 11.164-5.5 11.082-11.719" fill="#99c958"/><path d="m412.23 643.58-0.801-1.195c-11.719-17.383-25.754-28.309-42.899-33.41-3.031-0.875-6.14-1.196-9.25-1.434-1.195-0.082-2.39-0.16-3.586-0.32-1.039-0.078-1.836 0-2.554 0.238-0.317 0.16-0.637 0.32-0.875 0.559-0.797 0.796-1.117 1.992-1.035 3.668 0.316 6.46 2.152 12.757 5.421 18.578 10.204 18.261 25.036 31.019 44.012 37.879 5.028 1.832 10.367 2.628 15.871 2.23 2.473-0.078 3.508-1.273 3.43-3.746-0.242-6.621-2.156-13.078-6.063-20.332-0.476-0.961-1.117-1.836-1.671-2.715zm-8.696-46.727c-4.144-12.437-12.117-23.363-24.398-33.41-9.727-7.972-19.297-12.675-29.344-14.511-2.551-0.477-5.101-0.637-7.894-0.719-1.196-0.078-2.391-0.156-3.668-0.238l-1.274-0.079-0.082 1.274c-0.398 6.777 0.797 12.84 3.906 19.058 9.571 19.458 24.719 33.172 44.973 40.747 6.301 2.312 12.281 3.031 18.34 2.074l0.957-0.16 0.16-0.957c0.719-5.024-0.559-9.649-1.676-13.079zm-18.34-68.093c-9.488-16.828-23.121-29.028-40.664-36.282-7.418-3.031-14.351-4.066-21.05-3.031l-0.957 0.16-0.082 0.957c-0.637 4.543 0.32 8.77 1.277 11.961 3.031 10.047 8.851 19.297 17.781 28.309 9.969 9.965 20.492 16.504 32.215 19.934 5.742 1.671 10.926 2.074 16.027 1.195l1.035-0.16 0.082-1.035c0.399-7.258-1.437-14.434-5.664-22.008zm-11.878-53.188c-9.969-21.926-26.395-36.679-48.879-43.933-5.262-1.676-10.368-2.075-15.551-1.2l-0.957 0.161-0.078 1.039c-0.399 4.066 0.16 8.293 1.675 12.836 3.985 12.039 11.563 22.648 23.204 32.535 10.207 8.609 20.253 13.715 30.859 15.629 2.551 0.476 5.18 0.558 7.734 0.636 1.114 0.078 2.313 0.078 3.508 0.161l1.356 0.078 0.078-1.278c0.398-5.898-0.559-11.398-2.949-16.664zm-71.684-114.66c-3.75-4.863-7.977-9.488-11.961-13.953-3.27-3.59-6.621-7.336-9.73-11.164-3.985-4.785-7.336-10.285-10.684-15.867-2.789-4.543-7.816-6.457-12.121-4.625-0.078 0.082-0.078 0.082-0.16 0.16-4.782 2.234-6.856 7.414-4.703 12.199 0.796 1.836 1.753 3.668 2.71 5.5 0.399 0.719 0.879 1.516 1.278 2.395l0.078 0.082c3.75 5.82 8.375 10.84 12.84 15.785 1.754 1.914 3.508 3.828 5.179 5.742 4.708 5.422 10.129 11.723 14.754 18.5 5.661 8.293 6.696 17.543 3.11 27.59-1.035 2.789-2.153 5.5-3.27 8.293-1.992 4.781-0.32 9.648 4.305 12.039 2.312 1.195 4.945 1.434 7.258 0.637 2.152-0.715 3.906-2.391 4.863-4.465 2.152-5.024 4.945-11.641 6.461-18.5 3.187-13.953-0.32-27.508-10.207-40.348zm-54.305 10.926c-1.914 1.594-2.949 3.828-3.109 6.301-0.16 5.976-0.317 12.996 0.64 20.011 0.797 5.582 1.915 11.165 3.028 16.665 0.797 4.148 1.676 8.453 2.394 12.679 1.754 10.926 0.797 19.059-3.031 26.156-3.348 6.297-9.012 10.524-14.433 14.27-4.067 2.793-5.5 5.902-4.625 10.047 0.718 3.031 2.472 5.426 5.105 6.543 2.629 1.273 5.898 1.035 8.852-0.481 0.796-0.476 1.593-0.957 2.39-1.515l0.957-0.637c5.821-4.309 12.281-9.73 16.746-16.906 6.297-10.285 8.61-22.164 6.778-35.324-0.957-6.696-2.235-13.477-3.508-20.094-0.559-3.11-1.199-6.219-1.754-9.25-1.359-7.414-1.676-13.953-1.039-19.934 0.558-5.262-3.031-9.969-8.055-10.605-1.672-0.239-3.426 0-5.023 0.636-0.797 0.403-1.594 0.879-2.313 1.438zm-25.676 122c-5.421 0.559-10.761 1.992-16.105 4.383-3.828 1.597-7.656 3.75-11.641 6.301-13.875 9.089-23.445 19.855-29.183 32.773-1.996 4.543-2.953 9.09-2.953 13.875v0.953l0.957 0.242c5.504 1.434 11.246 1.274 18.101-0.64 15.469-4.223 29.106-13.235 40.508-26.711 6.219-7.414 10.047-14.75 11.879-22.567 0.32-1.433 0.48-2.871 0.641-4.465 0.078-0.796 0.156-1.671 0.316-2.628l0.16-1.438h-1.433c-1.278 0-2.473-0.078-3.668-0.16-2.633-0.078-5.106-0.156-7.579 0.082zm-78.062 115.46 0.078 0.957 0.957 0.238c6.461 1.434 13.238 0.957 20.574-1.515 19.457-6.618 34.528-18.739 44.813-36.2 3.191-5.343 5.101-10.925 5.66-16.828 0.16-2.551-0.875-3.828-3.426-4.144-7.816-0.875-15.789 0.476-24.402 4.144-0.399 0.242-0.875 0.403-1.274 0.641-15.711 7.176-28.07 17.941-36.761 32.055-4.145 6.699-6.617 14.828-6.219 20.652zm-18.18 53.664c-0.32 2.469-0.558 3.746 0.239 4.781 0.878 1.039 2.234 1.199 4.703 1.36 7.816 0.636 15.871-1.118 24.879-5.344 11.8-5.582 21.847-13.317 29.742-23.125 7.418-9.09 11.324-17.383 12.281-26.235 0.078-0.558 0.078-1.195 0.078-1.914l0.082-1.914-1.039-0.238c-5.5-1.273-11.32-1.117-17.859 0.637-3.508 0.957-6.938 2.156-10.285 3.59-11.403 4.945-21.692 12.836-30.622 23.445-7.015 8.371-10.921 16.344-12.199 24.957zm50.715 30.141c-0.16 19.695 5.66 37.238 17.383 51.988 4.465 5.664 9.406 9.488 15.07 11.801l0.957 0.398 0.637-0.875c4.785-7.098 6.855-15.312 6.699-25.758-0.48-20.011-6.699-37.238-18.582-51.191-2.312-2.711-5.262-4.863-8.133-6.938-0.875-0.714-1.832-1.355-2.711-2.07-1.117-0.879-2.23-1.199-3.347-1.039-0.239 0.078-0.399 0.16-0.641 0.238-0.875 0.403-1.594 1.117-2.23 2.313-3.348 6.062-5.024 13-5.102 21.133zm51.668 6.136 0.559-0.793c3.59-5.027 5.66-10.925 6.3-18.101 1.915-20.176-3.351-39.074-15.71-56.059-3.747-5.262-8.45-9.328-13.793-12.199-1.118-0.559-2.313-1.035-3.508-0.559-0.719 0.321-1.356 0.957-1.996 2.075-3.746 6.937-5.5 14.753-5.262 24 0.48 19.058 6.461 35.882 17.781 49.996 4.227 5.265 9.012 8.933 14.672 11.246zm16.906-58.605 1.434 0.558 0.559-0.878c3.429-4.704 5.421-10.364 6.218-17.622 1.598-13.078-0.476-26.152-6.218-39.949-4.067-9.648-9.012-17.062-15.153-22.726-1.754-1.512-3.664-2.789-5.578-4.067-0.957-0.636-1.914-1.273-2.793-1.914-0.957-0.715-1.832-0.957-2.711-0.797-0.16 0.082-0.316 0.16-0.476 0.16-0.957 0.399-1.516 1.278-1.914 1.915-3.348 5.98-5.102 12.757-5.344 20.574-0.559 18.898 4.785 36.199 15.867 51.429 4.387 5.981 9.332 10.207 15.07 12.918 0.321 0.161 0.641 0.239 1.039 0.399zm16.344-58.848c0.641 0.399 1.356 0.801 2.074 1.195l1.035 0.641 0.641-1.035c3.906-5.582 6.059-11.961 6.695-20.098 1.039-14.113-1.754-28.226-8.449-41.941-4.945-10.125-10.605-17.145-17.863-22.246-1.195-0.879-2.473-1.594-3.828-2.313-0.637-0.32-1.274-0.636-1.832-1.035l-1.035-0.558-0.719 0.957c-3.27 4.621-5.184 9.804-6.141 16.183-1.914 13.238-0.082 26.477 5.582 40.508 4.946 12.281 11.164 20.895 19.535 27.113 1.356 1.035 2.793 1.832 4.305 2.629zm11.164-62.273 1.039-0.321c5.262-1.515 9.965-4.464 13.953-8.769 16.746-17.621 24.16-38.516 22.168-62.039-0.242-3.028-1.195-5.899-2.152-8.692-0.402-1.117-0.801-2.23-1.117-3.347-0.399-1.356-1.039-2.235-1.914-2.633-1.196-0.555-2.395-0.156-3.27 0.242-0.16 0-0.238 0.078-0.32 0.078-8.371 3.989-15.07 10.367-21.129 20.172-9.328 15.074-13.559 30.942-12.68 47.129 0.321 6.379 1.992 12.039 4.946 17.301zm9.172 41.543c0.398 6.457 2.07 11.961 5.102 16.746l0.558 0.875 0.957-0.399c7.496-2.711 13.793-7.652 19.219-14.91 11.402-14.992 17.141-31.816 17.141-49.996 0-7.258-1.356-13.398-4.067-18.738-1.113-2.074-2.629-2.555-4.781-1.676 0 0.082 0 0.082-0.082 0.082-6.699 2.949-12.438 7.734-17.543 14.672-12.117 16.344-17.621 34.285-16.504 53.344zm15.148 63.39c0.243 2.473 1.196 4.864 2.075 7.098 0.316 0.957 0.718 1.832 1.035 2.793 0.398 1.191 1.039 1.992 1.836 2.391 0.957 0.398 1.992 0.16 3.347-0.321 6.86-3.031 12.84-8.133 18.262-15.629 10.363-14.429 15.707-30.617 15.867-48.082 0-7.894-1.675-14.672-5.183-20.812l-0.481-0.953-1.035 0.316c-1.035 0.32-2.07 0.719-3.027 1.117-3.75 1.594-7.098 3.989-10.207 7.176-17.782 18.262-25.36 40.109-22.489 64.906zm14.036 56.137c0.476 5.742 2.074 10.684 4.863 15.231l0.558 0.875 0.958-0.317c6.296-2.152 11.8-5.902 16.664-11.723 14.035-16.585 20.652-35.64 19.617-56.773-0.239-5.344-1.598-10.445-3.989-15.23-1.277-2.633-3.109-2.231-4.625-1.676 0 0.082-0.078 0.082-0.16 0.082-5.5 2.39-10.363 6.14-14.511 11.082-14.512 17.305-20.969 36.922-19.375 58.449zm80.457 57.012c1.672-4.543 2.629-9.489 2.871-15.149 0.636-18.019-3.828-34.527-13.399-49.039-4.066-6.14-8.691-10.687-14.191-13.875-1.277-0.718-2.313-0.875-3.192-0.476-0.636 0.316-1.277 0.875-1.753 1.672-4.067 6.378-6.219 13.953-6.539 23.203-0.637 18.422 4.148 35.246 14.351 49.996 3.91 5.664 8.137 9.57 13.16 12.359l-165.78 165.78c-29.184-32.133-54.063-68.254-73.836-107.41 5.34-2.394 9.965-6.301 14.113-11.804 13.953-18.18 19.453-38.352 16.504-59.801-0.476-2.949-1.515-5.742-2.633-8.531-0.476-1.118-0.957-2.313-1.351-3.512-0.403-1.195-1.039-1.992-1.996-2.391-0.797-0.238-1.594-0.238-2.551 0.16-0.16 0.161-0.399 0.239-0.559 0.317l-3.109 1.758c-7.336 4.781-13.316 11.558-18.18 20.808-7.496 14.195-10.765 28.231-10.047 42.582-8.293-18.422-15.312-37.558-21.293-57.172 4.227 0.477 8.536 0.157 13-1.039 23.204-6.457 40.426-20.492 51.114-41.703 2.23-4.465 3.347-9.406 3.265-14.672v-0.957l-0.957-0.316c-4.941-1.438-9.644-0.879-14.113-0.078-4.625 0.715-9.168 2.07-13.715 4.062-3.984 1.676-7.894 3.91-11.961 6.539-11.719 7.977-20.332 17.067-26.23 27.91-1.676 3.11-2.871 5.981-3.75 8.852-11.481-41.465-17.703-85.082-17.703-130.22 0-125.75 47.683-240.33 125.99-326.6l326.61 326.6-152.14 152.14" fill="#fbc32b"/><path d="m686.25 91.531c-0.426-0.3321-0.816-0.4805-1.184-0.5625h3.164c-0.289 0.1796-0.39 0.3125-0.711 0.5-0.324 0.2031-1.003 0.2617-1.269 0.0625zm-109.29 460.11-134.84-134.92c4.707-3.747 9.094-7.735 12.281-12.676 9.965-15.391 18.899-31.738 27.59-47.528l4.785-8.769c12.52-22.645 31.254-39.707 57.328-51.988l5.582 7.175c-28.785 27.989-34.445 57.012-17.14 88.59-20.813 14.832-24.321 28.864-13.637 52.469 4.145 9.25 9.969 18.898 18.18 30.379 1.996 2.711 5.824 3.269 9.488 3.746 1.277 0.16 2.633 0.32 3.828 0.641l3.512 0.957-0.082-3.668c0-1.117 0.082-2.313 0.238-3.508 0.238-3.113 0.481-6.301-0.875-9.172-2.633-5.344-5.582-10.684-8.531-15.789-3.27-5.898-6.781-12.039-9.57-18.258-3.59-7.734-2.391-13.558 3.347-17.305 5.742-3.75 10.285-2.871 17.543 3.192 15.309 12.996 17.543 12.996 33.25-0.481 10.688-9.089 15.071-4.066 16.508-2.39 3.348 3.746 5.184 12.117 3.586 16.504-2.473 7.015-6.137 13.394-9.965 20.254-2.555 4.464-5.266 9.089-7.496 13.875-1.437 3.031-1.035 6.457-0.719 9.808 0.082 1.274 0.239 2.551 0.239 3.746v3.907l3.668-1.274c1.199-0.398 2.472-0.719 3.75-0.957 3.585-0.797 7.335-1.676 9.167-4.465 6.54-9.57 13.797-20.812 18.899-32.933 9.41-22.407 5.422-35.801-14.59-48.879 15.231-40.348 11.004-61.078-18.262-89.547l4.864-7.414c25.437 11.719 42.582 25.914 53.824 44.734 5.023 8.371 9.887 17.063 14.512 25.516 6.062 10.844 12.281 22.168 19.058 32.851 5.742 9.09 13.875 16.664 21.133 23.043zm27.191-348.46-11.722-20.333c11.242-10.046 19.375-21.285 24.242-33.253 3.265-7.891 5.101-16.102 5.5-24.481 0.316-8.051-0.879-16.18-3.27-24.242 3.828 0.32 7.735 0.723 11.563 1.121-1.914 8.609-1.438 17.781 1.676 27.512 0.636 1.988 1.195 3.988 1.753 5.976 0.477 1.684 1.036 3.434 1.512 5.184 10.367 33.254 1.598 50.957-31.254 62.516zm116.82 204.45c-0.243-0.399-0.403-0.797-0.641-1.196-2.23-2.711-4.781-5.101-7.254-7.414-2.871-2.632-5.582-5.183-7.656-8.132-4.945-6.938-9.09-14.754-13.156-22.25l-1.676-3.11c-30.301-55.894-32.133-58.207-83.883-90.183l1.914-8.774c1.914 0.641 3.746 1.36 5.66 1.996 6.301 2.153 12.282 4.227 18.66 5.66 21.368 4.786 37.633-2.23 46.965-20.25 6.856-13.16 12.68-27.035 18.34-40.429 3.508-8.532 7.258-17.305 11.082-25.836 3.352-7.176 7.098-14.434 10.766-21.367 3.347-6.543 6.855-13.243 10.047-20.012 1.277-2.879 0.957-5.981 0.636-9.02-0.078-1.191-0.238-2.39-0.238-3.422v-3.429l-3.348 0.711c-1.117 0.242-2.39 0.32-3.668 0.48-3.589 0.32-7.335 0.641-9.171 3.352-4.942 7.019-12.118 17.699-17.223 29.265-4.543 10.446-8.852 21.211-12.996 31.575-4.945 12.519-10.047 25.359-15.707 37.718-5.266 11.403-13.477 18.899-23.207 21.207-10.125 2.317-21.367-0.953-31.735-9.328-2.949-2.39-4.546-7.336-4.066-12.836 0.477-5.343 2.871-9.89 6.059-11.644l1.199-0.715c5.976-3.27 12.195-6.699 17.937-10.848 26.157-18.894 33.012-39.308 22.09-66.176-5.582-13.8-6.937-26.32-4.066-38.281 95.765 14.992 182.28 57.813 250.93 120.01zm-169.84-225.9-12.836 22.09c-2.074-1.437-4.148-2.871-6.141-4.308-6.539-4.465-12.601-8.692-18.339-13.555-8.852-7.336-11.883-17.063-9.012-28.785 0.238-1.2 0.476-2.391 0.719-3.668 0.558-2.551 0.957-4.942 1.992-7.024 6.937-14.91 8.929-29.258 6.058-43.289l11.961-1.437c-8.051 28.867 1.356 59.41 25.598 79.976zm-137.15-47.437-0.32-3.91 3.828 0.949c1.196 0.32 2.551 0.48 3.907 0.64 3.828 0.481 7.734 0.961 9.648 3.75 7.016 9.969 12.68 19.93 16.902 29.583 4.465 10.207 8.614 20.734 12.68 30.859 4.945 12.281 9.969 25.039 15.551 37.238 10.523 22.965 21.371 26.871 46.484 16.746 8.934-3.668 9.891-8.851 11.008-18.582 0.875-7.73-2.633-9.644-9.41-13.316-38.594-20.891-47.207-42.18-34.207-84.199l0.476-1.68c0.481-1.59 0.957-3.109 1.516-4.617 2.871-7.582 3.508-14.75 1.992-21.614-92.894 16.032-176.78 58.207-243.68 118.81l177.02 177.02c1.754-1.993 3.43-4.149 5.184-6.059 5.023-5.664 10.207-11.406 14.351-17.625 6.063-9.09 11.242-19.137 16.266-28.863 1.676-3.192 3.269-6.301 4.945-9.41 13.797-26.157 34.207-46.008 60.602-59.008 4.144-1.992 6.539-4.145 7.175-6.379 0.559-1.914-0.078-4.305-1.835-7.574l-1.993 0.796c-2.949 1.2-5.66 2.235-8.531 3.27-30.223 10.527-49.117 3.109-63.391-24.637-4.148-8.133-7.578-16.668-10.925-24.961-2.313-5.578-4.543-11.242-7.098-16.746-3.906-8.687-7.973-17.301-12.039-25.914-4.945-10.445-9.809-20.887-14.512-31.418-1.355-2.949-1.355-6.219-1.437-9.41 0-1.187 0-2.469-0.157-3.738" fill="#f36922"/></g></g></svg>
